<svg width="40" height="40" viewBox="0 0 40 40" fill="none" xmlns="http://www.w3.org/2000/svg">
<path d="M36.2666 26.5334L25.6 7.33337C24.1666 4.75004 22.1833 3.33337 20 3.33337C17.8166 3.33337 15.8333 4.75004 14.4 7.33337L3.7333 26.5334C2.3833 28.9834 2.2333 31.3334 3.31663 33.1834C4.39996 35.0334 6.5333 36.05 9.3333 36.05H30.6666C33.4666 36.05 35.6 35.0334 36.6833 33.1834C37.7666 31.3334 37.6166 28.9667 36.2666 26.5334ZM18.75 15C18.75 14.3167 19.3166 13.75 20 13.75C20.6833 13.75 21.25 14.3167 21.25 15V23.3334C21.25 24.0167 20.6833 24.5834 20 24.5834C19.3166 24.5834 18.75 24.0167 18.75 23.3334V15ZM21.1833 29.5167C21.1 29.5834 21.0166 29.65 20.9333 29.7167C20.8333 29.7834 20.7333 29.8334 20.6333 29.8667C20.5333 29.9167 20.4333 29.95 20.3166 29.9667C20.2166 29.9834 20.1 30 20 30C19.9 30 19.7833 29.9834 19.6666 29.9667C19.5666 29.95 19.4666 29.9167 19.3666 29.8667C19.2666 29.8334 19.1666 29.7834 19.0666 29.7167C18.9833 29.65 18.9 29.5834 18.8166 29.5167C18.5166 29.2 18.3333 28.7667 18.3333 28.3334C18.3333 27.9 18.5166 27.4667 18.8166 27.15C18.9 27.0834 18.9833 27.0167 19.0666 26.95C19.1666 26.8834 19.2666 26.8334 19.3666 26.8C19.4666 26.75 19.5666 26.7167 19.6666 26.7C19.8833 26.65 20.1166 26.65 20.3166 26.7C20.4333 26.7167 20.5333 26.75 20.6333 26.8C20.7333 26.8334 20.8333 26.8834 20.9333 26.95C21.0166 27.0167 21.1 27.0834 21.1833 27.15C21.4833 27.4667 21.6666 27.9 21.6666 28.3334C21.6666 28.7667 21.4833 29.2 21.1833 29.5167Z" fill="#FBFBFB"/>
</svg>
