<svg width="27" height="27" viewBox="0 0 27 27" fill="none" xmlns="http://www.w3.org/2000/svg">
<path d="M23.1042 11.2677H19.982C17.4217 11.2677 15.3367 9.18271 15.3367 6.62236V3.50024C15.3367 2.90606 14.8505 2.41992 14.2564 2.41992H9.67582C6.34844 2.41992 3.65845 4.58056 3.65845 8.43729V18.0089C3.65845 21.8656 6.34844 24.0263 9.67582 24.0263H18.1671C21.4945 24.0263 24.1845 21.8656 24.1845 18.0089V12.348C24.1845 11.7539 23.6983 11.2677 23.1042 11.2677ZM14.224 17.3067L12.0633 19.4673C11.9877 19.543 11.8905 19.6078 11.7932 19.6402C11.696 19.6834 11.5988 19.705 11.4907 19.705C11.3827 19.705 11.2855 19.6834 11.1883 19.6402C11.1018 19.6078 11.0154 19.543 10.9506 19.4781C10.9398 19.4673 10.929 19.4673 10.929 19.4565L8.76835 17.2959C8.45506 16.9826 8.45506 16.4641 8.76835 16.1508C9.08164 15.8375 9.60019 15.8375 9.91349 16.1508L10.6805 16.9394V12.4129C10.6805 11.9699 11.0478 11.6026 11.4907 11.6026C11.9337 11.6026 12.301 11.9699 12.301 12.4129V16.9394L13.0788 16.1616C13.3921 15.8483 13.9107 15.8483 14.224 16.1616C14.5372 16.4749 14.5372 16.9934 14.224 17.3067Z" fill="#EBEBEB"/>
<path d="M19.7873 9.77615C20.8136 9.78695 22.2396 9.78695 23.4604 9.78695C24.0761 9.78695 24.4002 9.06314 23.9681 8.63101C22.4125 7.06455 19.6252 4.24492 18.0264 2.64605C17.5834 2.20312 16.8164 2.50561 16.8164 3.12139V6.8917C16.8164 8.46896 18.156 9.77615 19.7873 9.77615Z" fill="#EBEBEB"/>
</svg>
