<svg width="30" height="30" viewBox="0 0 30 30" fill="none" xmlns="http://www.w3.org/2000/svg">
<circle cx="15" cy="15" r="15" fill="#131F13"/>
<path d="M13.4277 18.6348C13.4277 18.1921 13.4505 17.7982 13.4961 17.4531C13.5482 17.1016 13.6328 16.7793 13.75 16.4863C13.8672 16.1934 14.0202 15.9232 14.209 15.6758C14.3978 15.4219 14.6322 15.168 14.9121 14.9141C15.1335 14.7188 15.3385 14.5299 15.5273 14.3477C15.7161 14.1589 15.8789 13.9733 16.0156 13.791C16.1523 13.6022 16.2565 13.4069 16.3281 13.2051C16.4062 12.9967 16.4453 12.7754 16.4453 12.541C16.4453 11.9876 16.3151 11.5742 16.0547 11.3008C15.8008 11.0273 15.4232 10.8906 14.9219 10.8906C14.7201 10.8906 14.5215 10.9232 14.3262 10.9883C14.1374 11.0469 13.9681 11.1445 13.8184 11.2812C13.6686 11.418 13.5482 11.5938 13.457 11.8086C13.3659 12.0169 13.3171 12.2676 13.3105 12.5605H10.4785C10.485 11.877 10.6055 11.2878 10.8398 10.793C11.0742 10.2917 11.39 9.87826 11.7871 9.55273C12.1842 9.22721 12.6497 8.98633 13.1836 8.83008C13.724 8.66732 14.3034 8.58594 14.9219 8.58594C15.6055 8.58594 16.2174 8.67057 16.7578 8.83984C17.2982 9.00911 17.7539 9.25651 18.125 9.58203C18.4961 9.90104 18.7793 10.3014 18.9746 10.7832C19.1764 11.2585 19.2773 11.8021 19.2773 12.4141C19.2773 12.8438 19.2122 13.2311 19.082 13.5762C18.9518 13.9212 18.776 14.2467 18.5547 14.5527C18.3333 14.8587 18.0794 15.1549 17.793 15.4414C17.5065 15.7214 17.2038 16.0078 16.8848 16.3008C16.7025 16.4701 16.5495 16.6393 16.4258 16.8086C16.3086 16.9779 16.2109 17.1569 16.1328 17.3457C16.0612 17.528 16.0091 17.7266 15.9766 17.9414C15.9505 18.1497 15.9342 18.3809 15.9277 18.6348H13.4277ZM13.1445 21.6328C13.1445 21.418 13.1803 21.2194 13.252 21.0371C13.3301 20.8548 13.4375 20.6986 13.5742 20.5684C13.7109 20.4316 13.877 20.3242 14.0723 20.2461C14.2676 20.168 14.4857 20.1289 14.7266 20.1289C14.9674 20.1289 15.1855 20.168 15.3809 20.2461C15.5762 20.3242 15.7422 20.4316 15.8789 20.5684C16.0156 20.6986 16.1198 20.8548 16.1914 21.0371C16.2695 21.2194 16.3086 21.418 16.3086 21.6328C16.3086 21.8411 16.2695 22.0365 16.1914 22.2188C16.1198 22.401 16.0156 22.5605 15.8789 22.6973C15.7422 22.8275 15.5762 22.9284 15.3809 23C15.1855 23.0781 14.9674 23.1172 14.7266 23.1172C14.4857 23.1172 14.2676 23.0781 14.0723 23C13.877 22.9284 13.7109 22.8275 13.5742 22.6973C13.4375 22.5605 13.3301 22.401 13.252 22.2188C13.1803 22.0365 13.1445 21.8411 13.1445 21.6328Z" fill="#FBFBFB"/>
</svg>
