<svg width="27" height="27" viewBox="0 0 27 27" fill="none" xmlns="http://www.w3.org/2000/svg">
<path d="M3.63629 20.7958L3.61468 20.8174C3.323 20.18 3.13934 19.4562 3.06372 18.6567C3.13934 19.4454 3.3446 20.1584 3.63629 20.7958Z" fill="#EBEBEB"/>
<path d="M10.5719 11.4724C11.9919 11.4724 13.143 10.3212 13.143 8.90123C13.143 7.48122 11.9919 6.33008 10.5719 6.33008C9.15188 6.33008 8.00073 7.48122 8.00073 8.90123C8.00073 10.3212 9.15188 11.4724 10.5719 11.4724Z" fill="#EBEBEB"/>
<path d="M18.3392 2.41992H9.28617C5.35381 2.41992 3.00952 4.76421 3.00952 8.69657V17.7496C3.00952 18.9272 3.21478 19.9535 3.6145 20.8177C4.54357 22.8703 6.53136 24.0263 9.28617 24.0263H18.3392C22.2716 24.0263 24.6159 21.682 24.6159 17.7496V15.2757V8.69657C24.6159 4.76421 22.2716 2.41992 18.3392 2.41992ZM22.855 13.7633C22.0123 13.0394 20.6511 13.0394 19.8085 13.7633L15.3143 17.62C14.4717 18.3438 13.1105 18.3438 12.2678 17.62L11.9005 17.3175C11.1335 16.6477 9.91275 16.5829 9.0485 17.1663L5.00811 19.8779C4.77044 19.2729 4.63 18.5707 4.63 17.7496V8.69657C4.63 5.65007 6.23967 4.0404 9.28617 4.0404H18.3392C21.3857 4.0404 22.9954 5.65007 22.9954 8.69657V13.8821L22.855 13.7633Z" fill="#EBEBEB"/>
</svg>
