<svg width="65" height="86" viewBox="0 0 65 86" fill="none" xmlns="http://www.w3.org/2000/svg">
<g clip-path="url(#clip0_864_14842)">
<path d="M34.012 72.9397H30.4834V74.1998H34.012V72.9397Z" fill="#FBFBFB"/>
<path d="M32.2931 79.0032C32.2931 79.3389 32.2135 79.6478 32.052 79.9321C31.8905 80.2141 31.6737 80.4379 31.3971 80.6035C31.1206 80.7692 30.8153 80.852 30.4834 80.852C30.1516 80.852 24.6275 80.7692 24.3531 80.6035C24.0788 80.4379 23.8598 80.2141 23.6983 79.9321C23.5346 79.65 23.4527 79.3389 23.4527 79.0032C23.4527 78.4033 23.3067 77.8527 23.0125 77.3491C22.7182 76.8455 22.3222 76.4448 21.82 76.1471C21.3201 75.8494 20.7758 75.7017 20.1896 75.7017H13.6301L18.1299 72.8971L17.3667 71.722L11.0151 75.695V77.1655H20.1896C20.5148 77.1655 20.8179 77.2484 21.0944 77.414C21.3709 77.5796 21.59 77.8012 21.7492 78.081C21.9107 78.3608 21.9904 78.6697 21.9904 79.0054C21.9904 79.3412 21.9107 79.65 21.7492 79.9343C21.5878 80.2163 21.3709 80.4401 21.0944 80.6058C20.8179 80.7714 20.5148 80.8542 20.1896 80.8542H10.0683C9.73642 80.8542 9.43112 80.7714 9.15016 80.6058C8.87141 80.4401 8.65018 80.2163 8.48647 79.9343C8.32276 79.6523 8.2409 79.3412 8.2409 79.0054V75.9725L6.79626 76.3329V79.0032C6.79626 79.603 6.94228 80.1559 7.23651 80.6617C7.53075 81.1676 7.92675 81.5705 8.42895 81.8659C8.92893 82.1636 9.47537 82.3114 10.0683 82.3114H20.1874C20.7736 82.3114 21.3178 82.1636 21.8178 81.8659C22.1873 81.6466 22.4992 81.3713 22.7558 81.0378C23.0434 81.425 23.3974 81.7316 23.8244 81.9577C24.2514 82.186 24.7115 82.3002 25.2027 82.3069L30.4812 82.3091C31.0675 82.3091 31.6117 82.1614 32.1117 81.8637C32.6117 81.566 33.0099 81.1654 33.3063 80.6595C33.6028 80.1536 33.751 79.6008 33.751 79.0009V75.9681L32.2887 76.3284V78.9987L32.2931 79.0032Z" fill="#FBFBFB"/>
<path d="M37.3217 72.8971H35.8284V74.2333H37.3217V72.8971Z" fill="#FBFBFB"/>
<path d="M49.0867 79.0032C49.0867 79.3389 49.0027 79.6478 48.8368 79.9321C48.6708 80.2141 48.4474 80.4379 48.1686 80.6036C47.8899 80.7692 47.5868 80.852 47.2594 80.852H39.1159C38.7885 80.852 38.4876 80.767 38.211 80.5991C37.9345 80.4312 37.7155 80.2074 37.5518 79.9276C37.3881 79.6478 37.3062 79.3389 37.3062 79.0032V75.9636L35.8461 76.3329V83.8178L34.4435 84.7668L35.2488 85.9934L37.3084 84.5989V81.4474C37.4611 81.6063 37.6248 81.7496 37.8062 81.8772C38.2221 82.1659 38.6535 82.3091 39.1004 82.3136H47.2594C47.8456 82.3136 48.3899 82.1659 48.8898 81.8682C49.3898 81.5705 49.788 81.1699 50.0801 80.664C50.3743 80.1582 50.5203 79.6053 50.5203 79.0054V75.9726L49.0845 76.3329V79.0032H49.0867Z" fill="#FBFBFB"/>
<path d="M49.5004 84.0438H45.9718V85.304H49.5004V84.0438Z" fill="#FBFBFB"/>
<path d="M55.0887 75.6949C54.4958 75.6949 53.9516 75.8427 53.4538 76.1404C52.9561 76.4381 52.56 76.8409 52.2658 77.349C51.9716 77.8594 51.8256 78.4122 51.8256 79.0121C51.8256 79.6119 51.976 80.1312 52.2791 80.6415C52.58 81.1519 52.976 81.557 53.4627 81.8592C53.9494 82.1613 54.456 82.3135 54.9825 82.3135H56.6174L52.9561 84.7757L53.7613 86.0022L58.3696 82.8955V75.6949H55.0909H55.0887ZM56.9139 80.8519H55.0865C54.7547 80.8519 54.4494 80.7691 54.1728 80.6035C53.8963 80.4379 53.6751 80.2118 53.5136 79.9275C53.3498 79.641 53.268 79.3322 53.268 78.9942C53.268 78.6562 53.3498 78.3563 53.5136 78.0742C53.6773 77.7922 53.8985 77.5684 54.1772 77.4028C54.456 77.2371 54.7591 77.1543 55.0865 77.1543H56.9139V80.8497V80.8519Z" fill="#FBFBFB"/>
</g>
<g clip-path="url(#clip1_864_14842)">
<path d="M34.0832 13.194H30.2871V24.2119H34.0832V13.194Z" fill="#FBFBFB"/>
<path d="M30.1318 0C14.0246 1.15839 1.157 14.0415 0 30.171H3.79906H3.80199C4.94728 16.1588 16.1365 4.95322 30.1289 3.80656C30.1289 3.80656 30.1289 3.80656 30.1289 3.80363V0H30.1318Z" fill="#FBFBFB"/>
<path d="M34.8682 0V3.80363V3.80656C48.8605 4.95322 60.0498 16.1588 61.198 30.1651C61.198 30.1651 61.198 30.1651 61.2009 30.1651H65C63.843 14.0415 50.9783 1.15839 34.8682 0Z" fill="#FBFBFB"/>
<path d="M30.1289 61.2746C16.1365 60.1279 4.94728 48.9223 3.79906 34.916C3.79906 34.916 3.79906 34.916 3.79613 34.916H0C1.157 51.0455 14.0246 63.9286 30.1318 65.087V61.2834V61.2804L30.1289 61.2746Z" fill="#FBFBFB"/>
<path d="M61.2009 34.916C60.0556 48.9252 48.8635 60.1279 34.8711 61.2746C34.8711 61.2746 34.8711 61.2746 34.8711 61.2775V65.0811C50.9812 63.9227 63.8459 51.0397 65.0029 34.9102H61.2038C61.2038 34.9102 61.2038 34.9102 61.2009 34.9102V34.916Z" fill="#FBFBFB"/>
<path d="M32.4048 23.5315C27.1529 23.5315 22.8939 27.7955 22.8939 33.0538C22.8939 38.312 27.1529 42.576 32.4048 42.576C37.6567 42.576 41.9156 38.312 41.9156 33.0538C41.9156 27.7955 37.6567 23.5315 32.4048 23.5315ZM33.881 37.4879C30.3485 37.4879 27.4868 34.6198 27.4868 31.086C27.4868 27.5521 30.3514 24.684 33.881 24.684C37.4106 24.684 40.2753 27.5521 40.2753 31.086C40.2753 34.6198 37.4106 37.4879 33.881 37.4879Z" fill="#FBFBFB"/>
<path d="M33.881 35.2092C36.1571 35.2092 38.0023 33.3619 38.0023 31.083C38.0023 28.8042 36.1571 26.9568 33.881 26.9568C31.6049 26.9568 29.7598 28.8042 29.7598 31.083C29.7598 33.3619 31.6049 35.2092 33.881 35.2092Z" fill="#FBFBFB"/>
<path d="M32.3492 14.7512C41.3913 14.7512 48.8635 21.4552 50.0908 30.171H54.0715C52.8207 19.2674 43.5764 10.798 32.3521 10.798C21.1277 10.798 11.8805 19.2674 10.6327 30.171H14.6134C15.8377 21.4581 23.3128 14.7512 32.355 14.7512H32.3492Z" fill="#FBFBFB"/>
<path d="M50.1289 34.9131C49.0363 43.7726 41.4968 50.635 32.3491 50.635C23.2015 50.635 15.662 43.7726 14.5694 34.9131H10.5917C11.7018 45.9633 21.0193 54.5911 32.3491 54.5911C43.679 54.5911 52.9965 45.9633 54.1066 34.9131H50.1289Z" fill="#FBFBFB"/>
</g>
<defs>
<clipPath id="clip0_864_14842">
<rect width="51.5689" height="14.278" fill="white" transform="translate(6.79846 71.722)"/>
</clipPath>
<clipPath id="clip1_864_14842">
<rect width="65" height="65.0811" fill="white"/>
</clipPath>
</defs>
</svg>
