<svg width="27" height="27" viewBox="0 0 27 27" fill="none" xmlns="http://www.w3.org/2000/svg">
<path d="M18.0135 2.41992H8.96048C5.02813 2.41992 2.68384 4.76421 2.68384 8.69657V17.7388C2.68384 21.682 5.02813 24.0263 8.96048 24.0263H18.0027C21.9351 24.0263 24.2794 21.682 24.2794 17.7496V8.69657C24.2902 4.76421 21.9459 2.41992 18.0135 2.41992ZM20.7792 11.0625C20.7792 11.5054 20.4118 11.8727 19.9689 11.8727C19.526 11.8727 19.1587 11.5054 19.1587 11.0625V8.69657L8.96048 18.8948H11.3264C11.7693 18.8948 12.1366 19.2621 12.1366 19.705C12.1366 20.1479 11.7693 20.5152 11.3264 20.5152H7.00511C6.89708 20.5152 6.78904 20.4936 6.69182 20.4504C6.49736 20.364 6.33531 20.2128 6.24889 20.0075C6.21648 19.9103 6.19487 19.813 6.19487 19.705V15.3837C6.19487 14.9408 6.56218 14.5735 7.00511 14.5735C7.44804 14.5735 7.81535 14.9408 7.81535 15.3837V17.7496L18.0135 7.55143H15.6476C15.2047 7.55143 14.8374 7.18412 14.8374 6.74119C14.8374 6.29826 15.2047 5.93095 15.6476 5.93095H19.9689C20.077 5.93095 20.1742 5.95256 20.2822 5.99577C20.4767 6.0822 20.6387 6.23344 20.7251 6.4387C20.7576 6.53593 20.7792 6.63316 20.7792 6.74119V11.0625Z" fill="#EBEBEB"/>
</svg>
