<svg width="32" height="32" viewBox="0 0 32 32" fill="none" xmlns="http://www.w3.org/2000/svg">
<path d="M27.96 13.8267V18.08C27.96 21.1733 25.4533 23.68 22.36 23.68H17.6133C16.88 23.68 16.28 24.2667 16.28 25.0133V26.1067C16.28 26.84 16.88 27.44 17.6133 27.44H20.6266C21.1466 27.44 21.5733 27.8533 21.5733 28.3867C21.5733 28.9067 21.1466 29.3333 20.6266 29.3333H10.04C9.51996 29.3333 9.09329 28.9067 9.09329 28.3867C9.09329 27.8533 9.51996 27.44 10.04 27.44H13.0533C13.7866 27.44 14.3866 26.84 14.3866 26.1067V25.0133C14.3866 24.2667 13.7866 23.68 13.0533 23.68H8.25329C5.17329 23.68 2.66663 21.1733 2.66663 18.08V9.58667C2.66663 6.50667 5.17329 4 8.25329 4H14C14.7333 4 15.3333 4.6 15.3333 5.33333V8.2C15.3333 10.7733 17.0533 12.4933 19.6133 12.4933H26.6266C27.36 12.4933 27.96 13.0933 27.96 13.8267Z" fill="#FBFBFB"/>
<path d="M29.32 3.14665L27.8134 4.19998V3.63998C27.8134 2.37331 26.7867 1.35998 25.5334 1.35998H19.8267C18.4534 1.34665 17.3334 2.46665 17.3334 3.83998V8.21331C17.3334 9.35998 17.9067 10.4933 19.6134 10.4933H25.52C26.7867 10.4933 27.8 9.46665 27.8 8.21331V7.63998L29.3067 8.69331C30.0667 9.21331 30.6667 8.89331 30.6667 7.98665V3.85331C30.6667 2.94665 30.0667 2.63998 29.32 3.14665Z" fill="#FBFBFB"/>
</svg>
