<svg width="27" height="27" viewBox="0 0 27 27" fill="none" xmlns="http://www.w3.org/2000/svg">
<path d="M23.7512 24.0259C23.5567 24.0259 23.3622 23.9503 23.2218 23.8099L21.2124 21.8005C20.9207 21.5088 20.9207 21.0335 21.2124 20.731C21.5041 20.4393 21.9794 20.4393 22.2819 20.731L24.2913 22.7404C24.583 23.032 24.583 23.5074 24.2913 23.8099C24.1401 23.9503 23.9456 24.0259 23.7512 24.0259Z" fill="#EBEBEB"/>
<path d="M13.1639 2.41992C7.50303 2.41992 2.90088 7.02208 2.90088 12.6829C2.90088 18.3438 7.50303 22.946 13.1639 22.946C18.8248 22.946 23.4269 18.3438 23.4269 12.6829C23.4269 7.02208 18.8248 2.41992 13.1639 2.41992ZM16.0808 13.7092H14.1902V15.5998C14.1902 16.0427 13.8229 16.41 13.38 16.41C12.937 16.41 12.5697 16.0427 12.5697 15.5998V13.7092H10.6792C10.2362 13.7092 9.86893 13.3419 9.86893 12.899C9.86893 12.4561 10.2362 12.0888 10.6792 12.0888H12.5697V10.1982C12.5697 9.75528 12.937 9.38797 13.38 9.38797C13.8229 9.38797 14.1902 9.75528 14.1902 10.1982V12.0888H16.0808C16.5237 12.0888 16.891 12.4561 16.891 12.899C16.891 13.3419 16.5237 13.7092 16.0808 13.7092Z" fill="#EBEBEB"/>
</svg>
