<svg width="27" height="27" viewBox="0 0 27 27" fill="none" xmlns="http://www.w3.org/2000/svg">
<path d="M23.6425 24.0259C23.4481 24.0259 23.2536 23.9503 23.1132 23.8099L21.1038 21.8005C20.8121 21.5088 20.8121 21.0335 21.1038 20.731C21.3955 20.4393 21.8708 20.4393 22.1733 20.731L24.1827 22.7404C24.4744 23.032 24.4744 23.5074 24.1827 23.8099C24.0314 23.9503 23.837 24.0259 23.6425 24.0259Z" fill="#EBEBEB"/>
<path d="M13.0553 2.41992C7.39439 2.41992 2.79224 7.02208 2.79224 12.6829C2.79224 18.3438 7.39439 22.946 13.0553 22.946C18.7161 22.946 23.3183 18.3438 23.3183 12.6829C23.3183 7.02208 18.7161 2.41992 13.0553 2.41992ZM15.756 13.7092H10.3545C9.91153 13.7092 9.54422 13.3419 9.54422 12.899C9.54422 12.4561 9.91153 12.0888 10.3545 12.0888H15.756C16.199 12.0888 16.5663 12.4561 16.5663 12.899C16.5663 13.3419 16.199 13.7092 15.756 13.7092Z" fill="#EBEBEB"/>
</svg>
