<svg width="32" height="32" viewBox="0 0 32 32" fill="none" xmlns="http://www.w3.org/2000/svg">
<path d="M26.8 12.2933C24.3866 12.2933 23.4 10.5867 24.6 8.49333C25.2933 7.28 24.88 5.73333 23.6666 5.04L21.36 3.72C20.3066 3.09333 18.9466 3.46666 18.32 4.52L18.1733 4.77333C16.9733 6.86666 15 6.86666 13.7866 4.77333L13.64 4.52C13.04 3.46666 11.68 3.09333 10.6266 3.72L8.31996 5.04C7.10663 5.73333 6.69329 7.29333 7.38663 8.50666C8.59996 10.5867 7.61329 12.2933 5.19996 12.2933C3.81329 12.2933 2.66663 13.4267 2.66663 14.8267V17.1733C2.66663 18.56 3.79996 19.7067 5.19996 19.7067C7.61329 19.7067 8.59996 21.4133 7.38663 23.5067C6.69329 24.72 7.10663 26.2667 8.31996 26.96L10.6266 28.28C11.68 28.9067 13.04 28.5333 13.6666 27.48L13.8133 27.2267C15.0133 25.1333 16.9866 25.1333 18.2 27.2267L18.3466 27.48C18.9733 28.5333 20.3333 28.9067 21.3866 28.28L23.6933 26.96C24.9066 26.2667 25.32 24.7067 24.6266 23.5067C23.4133 21.4133 24.4 19.7067 26.8133 19.7067C28.2 19.7067 29.3466 18.5733 29.3466 17.1733V14.8267C29.3333 13.44 28.2 12.2933 26.8 12.2933ZM16 20.3333C13.6133 20.3333 11.6666 18.3867 11.6666 16C11.6666 13.6133 13.6133 11.6667 16 11.6667C18.3866 11.6667 20.3333 13.6133 20.3333 16C20.3333 18.3867 18.3866 20.3333 16 20.3333Z" fill="#FBFBFB"/>
</svg>
