<svg width="20" height="20" viewBox="0 0 20 20" fill="none" xmlns="http://www.w3.org/2000/svg">
<path d="M15.425 6.875C15.8417 6.875 16.175 6.54167 16.175 6.125V2.25C16.175 1.83333 15.8417 1.5 15.425 1.5C15.0084 1.5 14.675 1.83333 14.675 2.25V6.125C14.675 6.53333 15.0167 6.875 15.425 6.875Z" fill="#02060C"/>
<path d="M10 13.125C9.58333 13.125 9.25 13.4583 9.25 13.875V17.75C9.25 18.1667 9.58333 18.5 10 18.5C10.4167 18.5 10.75 18.1667 10.75 17.75V13.875C10.75 13.4667 10.4167 13.125 10 13.125Z" fill="#02060C"/>
<path d="M4.57495 6.875C4.99162 6.875 5.32495 6.54167 5.32495 6.125V2.25C5.32495 1.83333 4.99162 1.5 4.57495 1.5C4.15828 1.5 3.82495 1.83333 3.82495 2.25V6.125C3.82495 6.53333 4.15828 6.875 4.57495 6.875Z" fill="#02060C"/>
<path d="M6.1249 8.4751H3.0249C2.60824 8.4751 2.2749 8.80843 2.2749 9.2251C2.2749 9.64176 2.60824 9.9751 3.0249 9.9751H3.8249V17.7501C3.8249 18.1668 4.15824 18.5001 4.5749 18.5001C4.99157 18.5001 5.3249 18.1668 5.3249 17.7501V9.9751H6.1249C6.54157 9.9751 6.8749 9.64176 6.8749 9.2251C6.8749 8.80843 6.53324 8.4751 6.1249 8.4751Z" fill="#02060C"/>
<path d="M16.975 8.4751H13.875C13.4583 8.4751 13.125 8.80843 13.125 9.2251C13.125 9.64176 13.4583 9.9751 13.875 9.9751H14.675V17.7501C14.675 18.1668 15.0083 18.5001 15.425 18.5001C15.8417 18.5001 16.175 18.1668 16.175 17.7501V9.9751H16.975C17.3917 9.9751 17.725 9.64176 17.725 9.2251C17.725 8.80843 17.3917 8.4751 16.975 8.4751Z" fill="#02060C"/>
<path d="M11.55 10.025H10.75V2.25C10.75 1.83333 10.4166 1.5 9.99995 1.5C9.58328 1.5 9.24995 1.83333 9.24995 2.25V10.025H8.44995C8.03328 10.025 7.69995 10.3583 7.69995 10.775C7.69995 11.1917 8.03328 11.525 8.44995 11.525H11.55C11.9666 11.525 12.3 11.1917 12.3 10.775C12.3 10.3583 11.9666 10.025 11.55 10.025Z" fill="#02060C"/>
</svg>
