<svg width="27" height="27" viewBox="0 0 27 27" fill="none" xmlns="http://www.w3.org/2000/svg">
<path d="M23.0359 14.3788C22.6254 14.3788 22.2797 14.0656 22.2257 13.655C21.9664 11.2135 20.6484 8.99887 18.6174 7.59445C18.2501 7.33518 18.1637 6.83823 18.4121 6.47092C18.6714 6.10362 19.1792 6.01719 19.5357 6.26566C21.9556 7.94016 23.5112 10.5761 23.8245 13.4822C23.8678 13.9251 23.5545 14.3248 23.1007 14.3788C23.0899 14.3788 23.0575 14.3788 23.0359 14.3788Z" fill="#EBEBEB"/>
<path d="M4.53017 14.4326C4.49776 14.4326 4.47615 14.4326 4.44374 14.4326C4.00081 14.3786 3.67672 13.9789 3.71993 13.536C4.01162 10.6299 5.55647 8.00473 7.94397 6.30863C8.31128 6.04936 8.81903 6.13578 9.0783 6.50309C9.33758 6.8704 9.25115 7.37815 8.88385 7.63743C6.87446 9.05264 5.57808 11.2673 5.3296 13.7088C5.29719 14.1193 4.94069 14.4326 4.53017 14.4326Z" fill="#EBEBEB"/>
<path d="M13.7884 24.6849C12.1895 24.6849 10.6663 24.3176 9.24027 23.6046C8.84055 23.3993 8.67851 22.9132 8.88377 22.5135C9.08903 22.1137 9.57517 21.9517 9.97489 22.157C12.3084 23.3345 15.1172 23.3561 17.4723 22.2218C17.872 22.0273 18.3582 22.2002 18.5526 22.5999C18.7471 22.9996 18.5742 23.4858 18.1745 23.6802C16.7917 24.35 15.3225 24.6849 13.7884 24.6849Z" fill="#EBEBEB"/>
<path d="M13.7886 9.37655C11.682 9.37655 9.9751 7.66965 9.9751 5.56303C9.9751 3.45641 11.682 1.74951 13.7886 1.74951C15.8952 1.74951 17.6021 3.45641 17.6021 5.56303C17.6021 7.66965 15.8844 9.37655 13.7886 9.37655ZM13.7886 3.38079C12.5787 3.38079 11.5956 4.36388 11.5956 5.57384C11.5956 6.78379 12.5787 7.76688 13.7886 7.76688C14.9986 7.76688 15.9817 6.78379 15.9817 5.57384C15.9817 4.36388 14.9878 3.38079 13.7886 3.38079Z" fill="#EBEBEB"/>
<path d="M5.97783 22.589C3.87121 22.589 2.16431 20.8821 2.16431 18.7754C2.16431 16.6796 3.87121 14.9619 5.97783 14.9619C8.08445 14.9619 9.79135 16.6688 9.79135 18.7754C9.79135 20.8713 8.08445 22.589 5.97783 22.589ZM5.97783 16.5824C4.76787 16.5824 3.78478 17.5655 3.78478 18.7754C3.78478 19.9854 4.76787 20.9685 5.97783 20.9685C7.18778 20.9685 8.17087 19.9854 8.17087 18.7754C8.17087 17.5655 7.18778 16.5824 5.97783 16.5824Z" fill="#EBEBEB"/>
<path d="M21.4698 22.589C19.3632 22.589 17.6562 20.8821 17.6562 18.7754C17.6562 16.6796 19.3632 14.9619 21.4698 14.9619C23.5764 14.9619 25.2833 16.6688 25.2833 18.7754C25.2725 20.8713 23.5656 22.589 21.4698 22.589ZM21.4698 16.5824C20.2598 16.5824 19.2767 17.5655 19.2767 18.7754C19.2767 19.9854 20.2598 20.9685 21.4698 20.9685C22.6797 20.9685 23.6628 19.9854 23.6628 18.7754C23.652 17.5655 22.6797 16.5824 21.4698 16.5824Z" fill="#EBEBEB"/>
</svg>
