<svg width="40" height="40" viewBox="0 0 40 40" fill="none" xmlns="http://www.w3.org/2000/svg">
<path d="M30.9 6.86661L21.7333 3.43328C20.7833 3.08328 19.2333 3.08328 18.2833 3.43328L9.11663 6.86661C7.34996 7.53328 5.91663 9.59994 5.91663 11.4833V24.9833C5.91663 26.3333 6.79996 28.1166 7.88329 28.9166L17.05 35.7666C18.6666 36.9833 21.3166 36.9833 22.9333 35.7666L32.1 28.9166C33.1833 28.0999 34.0666 26.3333 34.0666 24.9833V11.4833C34.0833 9.59994 32.65 7.53328 30.9 6.86661ZM25.8 16.1999L18.6333 23.3666C18.3833 23.6166 18.0666 23.7333 17.75 23.7333C17.4333 23.7333 17.1166 23.6166 16.8666 23.3666L14.2 20.6666C13.7166 20.1833 13.7166 19.3833 14.2 18.8999C14.6833 18.4166 15.4833 18.4166 15.9666 18.8999L17.7666 20.6999L24.05 14.4166C24.5333 13.9333 25.3333 13.9333 25.8166 14.4166C26.3 14.8999 26.3 15.7166 25.8 16.1999Z" fill="#FBFBFB"/>
</svg>
