<svg width="32" height="32" viewBox="0 0 32 32" fill="none" xmlns="http://www.w3.org/2000/svg">
<path d="M29.3333 14.3334C29.88 14.3334 30.3333 13.88 30.3333 13.3334V12C30.3333 6.12004 28.5467 4.33337 22.6667 4.33337H14.3333V7.33337C14.3333 7.88004 13.88 8.33337 13.3333 8.33337C12.7867 8.33337 12.3333 7.88004 12.3333 7.33337V4.33337H9.33334C3.45334 4.33337 1.66667 6.12004 1.66667 12V12.6667C1.66667 13.2134 2.12001 13.6667 2.66667 13.6667C3.94667 13.6667 5.00001 14.72 5.00001 16C5.00001 17.28 3.94667 18.3334 2.66667 18.3334C2.12001 18.3334 1.66667 18.7867 1.66667 19.3334V20C1.66667 25.88 3.45334 27.6667 9.33334 27.6667H12.3333V24.6667C12.3333 24.12 12.7867 23.6667 13.3333 23.6667C13.88 23.6667 14.3333 24.12 14.3333 24.6667V27.6667H22.6667C28.5467 27.6667 30.3333 25.88 30.3333 20C30.3333 19.4534 29.88 19 29.3333 19C28.0533 19 27 17.9467 27 16.6667C27 15.3867 28.0533 14.3334 29.3333 14.3334ZM14.3333 18.8934C14.3333 19.44 13.88 19.8934 13.3333 19.8934C12.7867 19.8934 12.3333 19.44 12.3333 18.8934V13.1067C12.3333 12.56 12.7867 12.1067 13.3333 12.1067C13.88 12.1067 14.3333 12.56 14.3333 13.1067V18.8934Z" fill="#131F13"/>
</svg>
