<svg width="32" height="32" viewBox="0 0 32 32" fill="none" xmlns="http://www.w3.org/2000/svg">
<path d="M16 18.6667C9.32 18.6667 3.88 23.1467 3.88 28.6667C3.88 29.04 4.17334 29.3334 4.54667 29.3334H27.4533C27.8267 29.3334 28.12 29.04 28.12 28.6667C28.12 23.1467 22.68 18.6667 16 18.6667Z" fill="#FBFBFB"/>
<path d="M20.9467 4.88002C19.7467 3.52002 17.96 2.66669 16 2.66669C14.1334 2.66669 12.4267 3.42669 11.2134 4.68002C10.0534 5.88002 9.33337 7.53335 9.33337 9.33335C9.33337 10.5867 9.68004 11.76 10.3067 12.76C10.64 13.3334 11.0667 13.8534 11.5734 14.28C12.7334 15.3467 14.28 16 16 16C18.44 16 20.5467 14.6934 21.7067 12.76C22.0534 12.1867 22.32 11.5467 22.4667 10.88C22.6 10.3867 22.6667 9.86669 22.6667 9.33335C22.6667 7.62669 22.0134 6.06669 20.9467 4.88002ZM18.4934 10.56H13.5067C12.8134 10.56 12.2534 10 12.2534 9.30669C12.2534 8.61335 12.8134 8.05335 13.5067 8.05335H18.4934C19.1867 8.05335 19.7467 8.61335 19.7467 9.30669C19.7467 10 19.1867 10.56 18.4934 10.56Z" fill="#FBFBFB"/>
</svg>
